<svg width="102" height="71" viewBox="0 0 102 71" fill="none" xmlns="http://www.w3.org/2000/svg">
<path d="M101.664 60.9724C101.664 60.2735 101.097 59.7054 100.397 59.7054H95.1367V6.91579C95.1367 3.23144 92.1388 0.232666 88.4535 0.232666H13.5429C9.85859 0.232666 6.85982 3.23054 6.85982 6.91579V59.7054H1.60099C0.902119 59.7054 0.333984 60.2726 0.333984 60.9724V63.7572C0.333984 67.3275 3.23822 70.2327 6.80947 70.2327H95.1894C98.7598 70.2327 101.666 67.3284 101.666 63.7572V60.9724H101.664ZM9.39165 6.91615C9.39165 4.62692 11.2533 2.76699 13.5408 2.76699H88.4537C90.7429 2.76699 92.6028 4.62862 92.6028 6.91615V59.7057H88.8027L88.8036 9.05587C88.8036 8.357 88.2363 7.78887 87.5365 7.78887H14.4603C13.7615 7.78887 13.1933 8.35609 13.1933 9.05587V59.7035H9.39227L9.39165 6.91615ZM86.2701 59.7057H15.7271V10.3225H86.2701V59.7057ZM99.1308 63.7567C99.1308 65.9302 97.3628 67.6982 95.1874 67.6982H6.80974C4.63622 67.6982 2.86822 65.9303 2.86822 63.7567V62.2379H99.133L99.1322 63.7567H99.1308Z" fill="#02B573"/>
<path d="M50.8856 21.7835C43.5513 21.8312 37.6254 27.8534 37.6731 35.2035C37.697 38.7651 39.1018 42.1031 41.6305 44.6043C44.1371 47.0844 47.4521 48.4486 50.9704 48.4486H51.0614C58.3957 48.4008 64.3216 42.3786 64.272 35.0285C64.249 31.4679 62.8442 28.1289 60.3147 25.6277C57.7886 23.1248 54.4117 21.7613 50.8854 21.7835H50.8856ZM59.4947 28.1088L56.7716 28.1264C56.124 26.7419 55.373 25.5995 54.6803 24.7142C56.1752 25.2487 57.5517 26.0961 58.7145 27.2473C58.992 27.522 59.2508 27.8101 59.4947 28.1087L59.4947 28.1088ZM61.1204 39.4199L57.6993 39.4429C58.0041 38.4436 58.2162 37.363 58.3001 36.2082L61.9428 36.1843C61.8333 37.3214 61.5479 38.4082 61.1203 39.4199L61.1204 39.4199ZM40.9704 30.512L44.2519 30.4908C43.9426 31.5713 43.7235 32.7482 43.6449 34.0259L40.0046 34.0497C40.1257 32.7951 40.4659 31.6085 40.9703 30.5119L40.9704 30.512ZM51.9775 28.1583L51.9572 25.0394C52.5686 25.6853 53.4344 26.7376 54.2173 28.1443L51.9775 28.1583ZM55.2466 30.4166C55.6203 31.4707 55.9004 32.6485 56.0117 33.9429L52.0154 33.9694L51.9925 30.4379L55.2466 30.4166ZM49.6971 28.1733L47.6588 28.1875C48.3453 26.9169 49.098 25.9186 49.6776 25.2604L49.6971 28.1733ZM49.713 30.4537L49.736 33.9852L45.9473 34.0108C46.0436 32.7199 46.2928 31.5316 46.6542 30.4757L49.713 30.4537ZM40.0214 36.3285L43.6695 36.3046C43.7685 37.4594 43.9947 38.5364 44.3145 39.5323L40.8828 39.5553C40.4357 38.5356 40.1433 37.4515 40.0214 36.3285V36.3285ZM45.9649 36.2887L49.7508 36.2631L49.772 39.4941L46.7309 39.5145C46.3518 38.5373 46.085 37.4541 45.9649 36.2886L45.9649 36.2887ZM49.7869 41.7746L49.8037 44.352C49.1844 43.6823 48.489 42.8191 47.8573 41.7871L49.7869 41.7746ZM52.0674 41.7596L54.1817 41.7455C53.4987 42.8967 52.7424 43.8368 52.085 44.5418L52.0674 41.7596ZM52.0523 39.4792L52.0311 36.2481L56.0186 36.2216C55.9143 37.3923 55.6466 38.4711 55.279 39.4581L52.0523 39.4792ZM61.9267 33.9023L58.2919 33.9262C58.1965 32.6495 57.9615 31.4752 57.6372 30.4L60.923 30.3788C61.4469 31.4832 61.7933 32.668 61.9267 33.9023V33.9023ZM47.1231 24.7728C46.4454 25.6643 45.712 26.8146 45.0865 28.2045L42.3705 28.2222C43.603 26.6777 45.2437 25.4797 47.1231 24.7728L47.1231 24.7728ZM42.2291 41.8261L45.2437 41.8058C46.0636 43.4262 47.0629 44.7444 47.9624 45.7349C46.1945 45.2374 44.5776 44.315 43.2338 42.9853C42.8662 42.6213 42.5384 42.2299 42.2292 41.8261L42.2291 41.8261ZM54.133 45.6977C55.0201 44.6931 56.0026 43.3608 56.7977 41.7279L59.7974 41.7076C58.3988 43.5878 56.4268 45.0077 54.133 45.6978V45.6977Z" fill="#02B573"/>
<path d="M29.1242 43.1873C29.3256 43.3048 29.5456 43.3605 29.763 43.3605C30.1977 43.3605 30.6218 43.1361 30.8577 42.7332L31.2809 42.0122C34.1736 50.2768 41.9646 55.8962 50.8795 55.8962C60.4668 55.8962 68.7631 49.4004 71.0559 40.1003C71.2229 39.4217 70.8077 38.7352 70.1291 38.5674C69.4523 38.4039 68.764 38.8147 68.5962 39.4942C66.5844 47.66 59.2988 53.3621 50.8813 53.3621C43.0699 53.3621 36.2409 48.4478 33.6893 41.2161L34.6064 41.7542C35.209 42.1076 35.9857 41.9062 36.3391 41.3019C36.6925 40.6993 36.4902 39.9226 35.8867 39.5692L32.4285 37.5459C31.8268 37.1925 31.0502 37.3939 30.6959 37.9983L28.6708 41.4537C28.3165 42.0572 28.5197 42.833 29.1241 43.1872L29.1242 43.1873Z" fill="#02B573"/>
<path d="M31.6258 31.6813C32.3026 31.8421 32.9908 31.433 33.1569 30.7527C35.1617 22.5765 42.45 16.866 50.8773 16.866C58.549 16.866 65.2622 21.6071 67.9199 28.6241L67.047 28.2035C66.4197 27.9022 65.6598 28.1655 65.3576 28.7946C65.0537 29.4254 65.3197 30.1817 65.9487 30.4839L69.5571 32.2201C69.7347 32.3049 69.922 32.3455 70.1058 32.3455C70.5767 32.3455 71.0291 32.0822 71.2473 31.629L72.9835 28.0206C73.2874 27.3898 73.0215 26.6335 72.3924 26.3313C71.7642 26.03 71.0043 26.2933 70.703 26.9224L70.3002 27.7582C67.2828 19.7463 59.6287 14.332 50.8791 14.332C41.2821 14.332 32.9831 20.8367 30.6972 30.1483C30.5311 30.8286 30.9464 31.5152 31.6258 31.6813L31.6258 31.6813Z" fill="#02B573"/>
</svg>
