<svg width="70" height="71" viewBox="0 0 70 71" fill="none" xmlns="http://www.w3.org/2000/svg">
<path d="M65.625 41.9625H56.875V33.2125H52.5V52.9H17.5V17.9H37.1875V13.525H28.4375V4.77502H24.0625V13.525H17.5C16.34 13.5262 15.2279 13.9875 14.4077 14.8077C13.5875 15.6279 13.1262 16.7401 13.125 17.9V24.4625H4.375V28.8375H13.125V41.9625H4.375V46.3375H13.125V52.9C13.1262 54.06 13.5875 55.1721 14.4077 55.9923C15.2279 56.8126 16.34 57.2739 17.5 57.275H24.0625V66.025H28.4375V57.275H41.5625V66.025H45.9375V57.275H52.5C53.6598 57.2733 54.7716 56.8118 55.5917 55.9917C56.4118 55.1716 56.8733 54.0598 56.875 52.9V46.3375H65.625V41.9625Z" fill="#02B573"/>
<path d="M45.9375 46.3375H24.0625V24.4625H45.9375V46.3375ZM28.4375 41.9625H41.5625V28.8375H28.4375V41.9625ZM67.8125 28.8375H63.4375C63.4306 23.038 61.1236 17.4781 57.0228 13.3772C52.9219 9.27638 47.362 6.96947 41.5625 6.96252V2.58752C48.5221 2.59505 55.1945 5.36309 60.1157 10.2843C65.0369 15.2055 67.805 21.8779 67.8125 28.8375Z" fill="#02B573"/>
<path d="M56.875 28.8375H52.5C52.4965 25.9378 51.3431 23.1578 49.2926 21.1074C47.2422 19.057 44.4622 17.9035 41.5625 17.9V13.525C45.6222 13.5297 49.5143 15.1444 52.385 18.0151C55.2556 20.8857 56.8704 24.7778 56.875 28.8375Z" fill="#02B573"/>
</svg>
