<svg width="78" height="76" viewBox="0 0 78 76" fill="none" xmlns="http://www.w3.org/2000/svg">
<path d="M77.1149 74.0681H35.3768C34.8805 74.0681 34.4906 73.678 34.4906 73.1816C34.4906 72.6852 34.8805 72.2951 35.3768 72.2951H76.2276V55.5772C76.2276 48.3262 70.3436 42.44 63.0947 42.44H59.231L52.691 49.1235C52.5313 49.301 52.301 49.3895 52.0529 49.3895C51.8048 49.3895 51.5922 49.301 51.4148 49.1235L44.8747 42.44H41.0111C36.8816 42.44 32.9473 44.4257 30.4661 47.7763C30.1824 48.1664 29.6155 48.2548 29.2255 47.9538C28.8355 47.67 28.7471 47.1029 29.0481 46.7128C31.8658 42.9186 36.3324 40.667 41.0111 40.667H45.2468C45.4772 40.667 45.7075 40.7555 45.8849 40.933L52.0529 47.2442L58.2208 40.933C58.3805 40.7555 58.6108 40.667 58.8589 40.667H63.0947C71.3181 40.667 78 47.3505 78 55.5771V73.1811C78.0006 73.6781 77.6106 74.0682 77.1144 74.0682L77.1149 74.0681Z" fill="#02B573"/>
<path d="M45.249 42.4402C44.7528 42.4402 44.3628 42.0501 44.3628 41.5537V35.4195C44.3628 34.9231 44.7528 34.533 45.249 34.533C45.7452 34.533 46.1352 34.9231 46.1352 35.4195V41.5537C46.1347 42.0501 45.7452 42.4402 45.249 42.4402Z" fill="#02B573"/>
<path d="M58.8598 42.44C58.3636 42.44 57.9736 42.0499 57.9736 41.5535V35.721C57.9736 35.2246 58.3636 34.8345 58.8598 34.8345C59.3561 34.8345 59.7461 35.2246 59.7461 35.721V41.5535C59.7461 42.0499 59.3561 42.44 58.8598 42.44Z" fill="#02B573"/>
<path d="M52.2317 38.9285C46.1878 38.9107 39.6129 34.0708 39.3824 23.4685C39.3646 22.9721 39.7546 22.582 40.2508 22.5642H40.2686C40.7471 22.5642 41.1371 22.9543 41.1549 23.4329C41.3496 32.8465 47.0212 37.1549 52.2138 37.1549H52.2316C57.4065 37.1549 63.0781 32.8821 63.3084 23.5041C63.3262 23.0255 63.7162 22.6354 64.1946 22.6354H64.2124C64.7086 22.6532 65.0808 23.0612 65.0808 23.5397C64.8327 34.1237 58.2576 38.9285 52.2315 38.9285H52.2317Z" fill="#02B573"/>
<path d="M64.1946 24.4457C64.124 24.4457 64.0527 24.4457 63.9821 24.4279C63.5921 24.3394 63.3084 23.9849 63.3084 23.5948C63.1137 17.1417 61.5182 14.6419 60.7916 13.8262C54.9253 17.2303 50.1754 15.4216 46.9856 14.2163C44.7169 13.3654 43.902 13.1528 43.3878 13.7021C43.3878 18.9854 41.1547 23.6476 41.0485 23.8431C40.9066 24.1269 40.6407 24.3039 40.3219 24.3395C40.0204 24.3751 39.7016 24.2332 39.5242 23.985C35.9971 19.1273 35.7312 13.7199 38.7976 8.77432C42.4132 2.94178 49.9806 -0.834606 56.0429 0.158212C60.2786 0.86719 63.2204 3.7749 64.3726 8.34865C66.9956 10.4055 67.9175 13.7561 67.049 18.046C66.4109 21.2547 65.0107 23.8608 64.9399 23.985C64.8153 24.2688 64.5144 24.4463 64.195 24.4463L64.1946 24.4457ZM54.004 1.77141C48.9704 1.77141 43.2459 4.99789 40.3398 9.71368C37.9648 13.5429 37.8942 17.6916 40.1095 21.5742C40.7654 19.8013 41.6866 16.6987 41.6337 13.4366C41.6337 13.2591 41.6872 13.0822 41.7756 12.9402C43.1224 10.8661 45.3027 11.6993 47.6241 12.5679C50.7611 13.7555 55.0499 15.3693 60.42 11.9831C60.6859 11.8055 61.0403 11.8055 61.324 11.9653C61.6255 12.1428 63.9292 13.6141 64.7799 19.8191C65.7902 16.6632 66.4811 12.0537 63.0787 9.60737C62.9012 9.48327 62.7772 9.2885 62.7243 9.09317C61.5372 3.9339 58.2761 2.35628 55.7415 1.9306C55.1919 1.8065 54.6066 1.77144 54.0042 1.77144L54.004 1.77141Z" fill="#02B573"/>
<path d="M67.0488 74.0683C66.5526 74.0683 66.1626 73.6782 66.1626 73.1818V55.4353C66.1626 54.9389 66.5526 54.5488 67.0488 54.5488C67.5451 54.5488 67.935 54.9389 67.935 55.4353V73.1818C67.9345 73.6782 67.5451 74.0683 67.0488 74.0683Z" fill="#02B573"/>
<path d="M47.5348 53.8215H47.4463C47.1804 53.8037 46.9501 53.6618 46.8082 53.4314L39.0632 42.1028C38.7794 41.6949 38.8857 41.1456 39.2935 40.8796C39.7013 40.5958 40.2504 40.7021 40.5163 41.11L47.6766 51.5699L51.4517 47.8825C51.8061 47.5458 52.3558 47.5458 52.7101 47.9003C53.0467 48.2548 53.0467 48.8046 52.6923 49.1591L48.1551 53.591C47.9782 53.7329 47.7651 53.8214 47.5348 53.8214L47.5348 53.8215Z" fill="#02B573"/>
<path d="M56.5911 53.8213C56.3608 53.8213 56.1305 53.7329 55.9708 53.5731L51.4336 49.1413C51.0792 48.8046 51.0792 48.237 51.4158 47.8825C51.7523 47.528 52.3198 47.528 52.6742 47.8647L56.4493 51.552L63.6096 41.0922C63.8934 40.6843 64.4425 40.578 64.8324 40.8618C65.2224 41.1456 65.3465 41.6949 65.0627 42.085L57.3177 53.4136C57.1758 53.6261 56.9277 53.768 56.6796 53.8037C56.6445 53.8215 56.6267 53.8215 56.5911 53.8215L56.5911 53.8213Z" fill="#02B573"/>
<path d="M53.3128 55.2573H50.8138C50.495 55.2573 50.1935 55.0798 50.0339 54.7966L48.4033 51.747C48.173 51.3213 48.3327 50.772 48.7577 50.5417C49.1833 50.3113 49.7324 50.471 49.9627 50.8961L51.3451 53.4666H52.7982L54.1806 50.8961C54.411 50.4704 54.9428 50.3113 55.3856 50.5417C55.8112 50.772 55.9703 51.3041 55.74 51.747L54.1095 54.7966C53.9331 55.0804 53.6316 55.2573 53.3128 55.2573Z" fill="#02B573"/>
<path d="M48.2966 74.0681H48.1725C47.6941 73.9974 47.3397 73.5538 47.4104 73.0753L49.9093 54.2646C49.98 53.786 50.4234 53.4315 50.9018 53.5022C51.3803 53.5728 51.7346 54.0164 51.664 54.4949L49.165 73.3056C49.1294 73.7486 48.7394 74.0681 48.2966 74.0681H48.2966Z" fill="#02B573"/>
<path d="M55.8122 74.0681C55.3693 74.0681 54.9972 73.7492 54.9259 73.3056L52.427 54.4949C52.3563 54.0164 52.7107 53.5556 53.1891 53.5022C53.6676 53.4315 54.1282 53.786 54.1816 54.2646L56.6806 73.0753C56.7512 73.5538 56.3969 74.0146 55.9184 74.0681H55.8122Z" fill="#02B573"/>
<path d="M30.6272 76H7.74652C3.47516 76 0.00146484 72.5252 0.00146484 68.2525V54.1047C0.00146484 49.832 3.47516 46.3572 7.74652 46.3572L30.6272 46.3577C34.8986 46.3577 38.3723 49.8325 38.3723 54.1053V68.253C38.3723 72.5252 34.8986 76 30.6272 76V76ZM7.74652 48.1315C4.44986 48.1315 1.77384 50.8088 1.77384 54.1061V68.2539C1.77384 71.5516 4.45028 74.2285 7.74652 74.2285L30.6272 74.2279C33.9239 74.2279 36.5999 71.5506 36.5999 68.2533V54.1056C36.5999 50.8078 33.9235 48.131 30.6272 48.131L7.74652 48.1315Z" fill="#02B573"/>
<path d="M9.07653 76C8.58029 76 8.19031 75.6099 8.19031 75.1135V66.2491H0.88817C0.391933 66.2491 0.00195312 65.859 0.00195312 65.3626C0.00195312 64.8662 0.391933 64.4761 0.88817 64.4761H9.076C9.57224 64.4761 9.96222 64.8662 9.96222 65.3626V75.1134C9.96278 75.6098 9.55499 75.9999 9.07656 75.9999L9.07653 76Z" fill="#02B573"/>
<path d="M29.2983 75.9999C28.8021 75.9999 28.4121 75.6098 28.4121 75.1134V65.3626C28.4121 64.8662 28.8021 64.4761 29.2983 64.4761H37.4862C37.9824 64.4761 38.3724 64.8662 38.3724 65.3626C38.3724 65.859 37.9824 66.2491 37.4862 66.2491H30.1844V75.1135C30.1839 75.6099 29.7945 76 29.2982 76L29.2983 75.9999Z" fill="#02B573"/>
<path d="M37.4859 59.7422H22.6518C22.1556 59.7422 21.7656 59.3521 21.7656 58.8557C21.7656 58.3593 22.1556 57.9692 22.6518 57.9692H37.4859C37.9822 57.9692 38.3722 58.3593 38.3722 58.8557C38.3722 59.3527 37.9644 59.7422 37.4859 59.7422ZM15.7389 59.7422H0.886218C0.389981 59.7422 0 59.3521 0 58.8557C0 58.3593 0.389981 57.9692 0.886218 57.9692L15.7389 57.9698C16.2351 57.9698 16.6251 58.3599 16.6251 58.8563C16.6251 59.3527 16.2173 59.7422 15.7389 59.7422Z" fill="#02B573"/>
<path d="M27.1536 48.13C26.6573 48.13 26.2674 47.7399 26.2674 47.2435V43.609C26.2674 42.1021 25.0268 40.8611 23.5203 40.8611H14.8535C13.347 40.8611 12.1064 42.1021 12.1064 43.609V47.2435C12.1064 47.7399 11.7164 48.13 11.2202 48.13C10.724 48.13 10.334 47.7399 10.334 47.2435V43.609C10.334 41.1092 12.3546 39.0881 14.8534 39.0881H23.5024C26.0014 39.0881 28.0219 41.1094 28.0219 43.609V47.2435C28.0397 47.7399 27.6319 48.13 27.1535 48.13H27.1536Z" fill="#02B573"/>
<path d="M19.1779 63.1997C16.7852 63.1997 14.8359 61.2497 14.8359 58.8563C14.8359 56.463 16.7853 54.5129 19.1779 54.5129C21.5707 54.5129 23.52 56.463 23.52 58.8563C23.52 61.2493 21.5879 63.1997 19.1779 63.1997ZM19.1779 56.2853C17.7599 56.2853 16.6083 57.4378 16.6083 58.8558C16.6083 60.2743 17.7604 61.4262 19.1779 61.4262C20.596 61.4262 21.7476 60.2737 21.7476 58.8558C21.7476 57.4378 20.5954 56.2853 19.1779 56.2853Z" fill="#02B573"/>
</svg>
