<svg width="78" height="79" viewBox="0 0 78 79" fill="none" xmlns="http://www.w3.org/2000/svg">
<path d="M43.6999 51.9482H11.8919C11.3527 51.9482 10.9167 52.3848 10.9167 52.9234C10.9167 53.4613 11.3527 53.8986 11.8919 53.8986H43.6999C44.2391 53.8986 44.675 53.462 44.675 52.9234C44.675 52.3848 44.2391 51.9482 43.6999 51.9482Z" fill="#02B573"/>
<path d="M43.6999 57.9492H11.8919C11.3527 57.9492 10.9167 58.3858 10.9167 58.9244C10.9167 59.4623 11.3527 59.8996 11.8919 59.8996H43.6999C44.2391 59.8996 44.675 59.463 44.675 58.9244C44.675 58.3858 44.2391 57.9492 43.6999 57.9492Z" fill="#02B573"/>
<path d="M43.6999 63.9465H11.8919C11.3527 63.9465 10.9167 64.3831 10.9167 64.9217C10.9167 65.4596 11.3527 65.8969 11.8919 65.8969H43.6999C44.2391 65.8969 44.675 65.4603 44.675 64.9217C44.675 64.3838 44.2391 63.9465 43.6999 63.9465Z" fill="#02B573"/>
<path d="M9.91612 78.2253H68.083C73.5504 78.2253 78 73.8043 78 68.3702V30.2515C78 29.7136 77.5641 29.2763 77.0248 29.2763H55.5056V1.20785C55.5056 0.669945 55.0697 0.232666 54.5304 0.232666H0.975181C0.435903 0.232666 0 0.669248 0 1.20785V68.3699C0 73.8041 4.44956 78.225 9.91772 78.225L9.91612 78.2253ZM55.505 67.5248V31.2271H76.0511V68.3709C76.0511 72.7299 72.4768 76.2763 68.0844 76.2763H64.5869C64.5012 76.2518 64.4108 76.2382 64.3169 76.2382C59.5037 76.2382 55.5797 72.3933 55.4989 67.6379C55.5037 67.5998 55.5057 67.5617 55.5057 67.525L55.505 67.5248ZM1.94803 2.18198H53.5552V67.3629C53.5504 67.4031 53.5477 67.4439 53.5477 67.4847C53.5477 71.1202 55.3824 74.3394 58.1794 76.2734H9.91647C5.52279 76.2734 1.94838 72.727 1.94838 68.368L1.94803 2.18198Z" fill="#02B573"/>
<path d="M27.9501 15.3667H27.8719C21.4116 15.4095 16.1908 20.7139 16.2337 27.1905C16.2541 30.3269 17.4924 33.268 19.7202 35.472C21.9295 37.6577 24.8483 38.8585 27.9487 38.8585H28.0276C34.4893 38.8157 39.7099 33.5114 39.667 27.0347C39.6235 20.5852 34.3756 15.3667 27.9499 15.3667H27.9501ZM35.8134 21.0036L33.0301 21.0219C32.3561 19.5578 31.5455 18.3935 30.8464 17.5551C32.8389 18.1651 34.5636 19.3905 35.8134 21.0036V21.0036ZM37.0817 31.0879L33.7536 31.1103C34.0644 30.1413 34.2772 29.0865 34.3473 27.9475L37.8726 27.9243C37.7828 29.041 37.5101 30.1045 37.0817 31.0879L37.0817 31.0879ZM18.945 22.871L22.1418 22.8493C21.831 23.8856 21.6162 25.0301 21.5509 26.278L18.0276 26.3011C18.1249 25.0824 18.4465 23.9284 18.945 22.871V22.871ZM28.7062 21.052L28.6845 17.7899C29.255 18.357 30.2288 19.4607 31.0707 21.0363L28.7062 21.052ZM31.852 22.7847C32.2206 23.7979 32.4906 24.9411 32.5851 26.2047L28.7401 26.2298L28.7177 22.8051L31.852 22.7847ZM26.9504 21.0635L24.7553 21.0785C25.4999 19.6402 26.3608 18.5827 26.93 17.9727L26.9504 21.0635ZM26.9626 22.8173L26.985 26.242L23.2992 26.2665C23.3774 25.0009 23.6413 23.8564 23.9969 22.8371L26.9626 22.8173ZM18.037 28.057L21.5677 28.0339C21.6534 29.1716 21.8805 30.2236 22.2056 31.1879L18.8673 31.2103C18.4218 30.2189 18.1389 29.158 18.0369 28.0571L18.037 28.057ZM23.3386 28.021L26.9965 27.9965L27.0183 31.154L24.071 31.1737C23.6956 30.2278 23.4399 29.1656 23.3386 28.0211V28.021ZM27.0291 32.9091L27.0475 35.6966C26.3953 35.0241 25.6221 34.0802 24.9406 32.9227L27.0291 32.9091ZM28.7843 32.8975L31.057 32.8819C30.3307 34.1597 29.4827 35.1668 28.8041 35.8632L28.7843 32.8975ZM28.7727 31.1438L28.7523 27.9863L32.5905 27.9611C32.5048 29.1097 32.2504 30.1693 31.8866 31.124L28.7727 31.1438ZM37.8614 26.17L34.3422 26.1931C34.2592 24.9459 34.03 23.8048 33.7043 22.7719L36.8978 22.7502C37.4092 23.8029 37.7465 24.952 37.8614 26.1701L37.8614 26.17ZM24.9292 17.5921C24.2416 18.4381 23.446 19.6138 22.7912 21.0909L20.0057 21.1093C21.2345 19.4772 22.9428 18.2265 24.9292 17.5922V17.5921ZM19.8792 32.9576L22.925 32.9372C23.7608 34.6169 24.821 35.9281 25.7084 36.8474C23.9294 36.4387 22.2865 35.5451 20.9536 34.2258C20.5538 33.8307 20.2015 33.403 19.8792 32.9575L19.8792 32.9576ZM30.3477 36.8011C31.2195 35.8688 32.2524 34.5488 33.059 32.8705L36.092 32.8501C34.7312 34.7855 32.7061 36.2136 30.3477 36.8011V36.8011Z" fill="#02B573"/>
<path d="M8.55112 34.1771C8.70616 34.2676 8.8755 34.3104 9.04346 34.3104C9.37872 34.3104 9.70446 34.1377 9.88466 33.8289L10.4314 32.8966C12.8979 40.375 19.8718 45.4854 27.8647 45.4854C36.3394 45.4854 43.6737 39.7444 45.6985 31.5229C45.8284 31.0006 45.5081 30.4722 44.9858 30.343C44.4663 30.2179 43.9351 30.5341 43.806 31.0564C41.9963 38.4042 35.4401 43.5351 27.8646 43.5351C20.6942 43.5351 14.444 38.9346 12.2604 32.2125L13.4362 32.902C13.9013 33.1741 14.4977 33.0183 14.7697 32.5539C15.0417 32.0887 14.8867 31.4923 14.4229 31.2189L11.3431 29.4135C10.8759 29.1394 10.2795 29.2965 10.0095 29.7616L8.20403 32.8415C7.92998 33.3073 8.08503 33.905 8.55018 34.1771L8.55112 34.1771Z" fill="#02B573"/>
<path d="M10.7395 23.9041C11.2618 24.034 11.7901 23.7123 11.9193 23.1893C13.7227 15.832 20.2804 10.693 27.8642 10.693C34.8999 10.693 41.0461 15.1201 43.3378 21.6354L42.211 21.0934C41.7275 20.8615 41.1447 21.0635 40.9094 21.5484C40.6762 22.0339 40.8802 22.616 41.3657 22.8486L44.5817 24.3957C44.7184 24.461 44.8612 24.4923 45.004 24.4923C45.3664 24.4923 45.7146 24.2896 45.8833 23.9407L47.4317 20.7248C47.665 20.2392 47.461 19.6571 46.9754 19.4245C46.4926 19.1913 45.9077 19.3953 45.6738 19.8795L45.1611 20.9451C42.5844 13.6783 35.7207 8.74316 27.8644 8.74316C19.381 8.74316 12.044 14.4921 10.0254 22.7241C9.89688 23.2478 10.2179 23.7755 10.7401 23.904L10.7395 23.9041Z" fill="#02B573"/>
</svg>
