<svg width="71" height="70" viewBox="0 0 71 70" fill="none" xmlns="http://www.w3.org/2000/svg">
<path d="M69.9922 25.6807C69.2283 22.5697 65.6775 20.8783 64.1245 18.3962C61.7451 12.625 63.3583 8.84374 55.4348 7.38832H55.4342C54.2512 7.19077 53.1028 6.82303 52.0252 6.2968C49.5402 4.74651 47.8545 1.19351 44.7418 0.429658C41.6949 -0.432514 38.4321 1.8108 35.4997 1.87494C34.2737 1.79124 33.0661 1.53063 31.9148 1.10094C24.4037 -1.57434 23.8685 2.47984 18.9734 6.29794C16.3981 7.69303 12.4645 7.38556 10.2547 9.67852C7.96337 11.8878 8.26522 15.8214 6.87522 18.3972C3.08565 23.2711 -1.00764 23.8179 1.67822 31.3381V31.3375C2.10791 32.4888 2.36907 33.6964 2.45278 34.9218C2.3914 37.856 0.144207 41.1165 1.00749 44.164C1.77145 47.275 5.32221 48.967 6.87521 51.4485C7.40144 52.5267 7.76862 53.6745 7.96672 54.8581C9.42715 62.7694 13.1654 61.1655 18.9746 63.5478C21.4596 65.0985 23.1453 68.6505 26.258 69.415C29.3244 70.2766 32.5583 68.0333 35.4996 67.9697C41.7546 68.7827 44.1697 72.1187 49.4337 65.9172C50.1798 65.0071 51.0526 64.2085 52.0259 63.5467C54.6006 62.151 58.5347 62.4579 60.7446 60.1655C63.0359 57.9562 62.7323 54.0227 64.1252 51.4474C64.7864 50.4742 65.585 49.6014 66.4957 48.8552C72.681 43.5952 69.3757 41.2095 68.547 34.9217C68.609 31.9887 70.8556 28.7275 69.9923 25.6805L69.9922 25.6807ZM67.0296 39.2215C68.394 43.0273 67.9381 44.482 64.8734 47.0865V47.0859C62.5894 48.8655 61.0894 51.4653 60.6909 54.333C59.961 58.2962 58.8885 59.3866 54.9085 60.1132C52.0414 60.5122 49.4431 62.0122 47.6641 64.2956C45.0631 67.3442 43.6178 67.8285 39.7985 66.4525C37.0391 65.3453 33.9592 65.3453 31.1998 66.4525C29.6021 66.9497 28.0949 67.4218 26.8778 67.0959C24.3392 66.3191 22.6211 62.7867 20.1752 61.4692C17.8169 60.0016 13.8928 60.2554 11.9521 58.4697C10.1669 56.5262 10.4242 52.6042 8.95207 50.246C7.63454 47.8025 4.10049 46.0803 3.32535 43.5429C2.99947 42.3264 3.47099 40.818 3.96821 39.2209L3.96877 39.222C5.07647 36.4626 5.07647 33.3821 3.96932 30.6227C2.60437 26.8163 3.0614 25.3633 6.12618 22.7577C8.40961 20.9793 9.90961 18.3804 10.3076 15.5133C10.6787 13.8593 11.0303 12.2967 11.9516 11.3749C13.8952 9.58972 17.8172 9.847 20.1748 8.37486C22.9186 6.95187 24.5676 2.72972 27.7608 2.64043C30.1938 2.71409 32.927 4.31843 35.499 4.27486C40.859 4.08457 43.3852 0.0605725 47.663 5.5483V5.54886C49.442 7.83229 52.0413 9.33229 54.9086 9.73029C56.5626 10.1014 58.1252 10.4529 59.0459 11.3743C60.831 13.3174 60.5749 17.2393 62.047 19.5974C63.3646 22.041 66.8986 23.7631 67.6738 26.3006C67.9985 27.5171 67.5281 29.0254 67.0298 30.6226C65.9226 33.382 65.9226 36.4619 67.0298 39.2213L67.0296 39.2215Z" fill="#02B573"/>
<path d="M35.4993 12.415C29.5328 12.4217 23.8119 14.795 19.5922 19.0143C15.3729 23.2336 12.9996 28.9546 12.9929 34.9215C14.2295 64.78 56.7744 64.7715 58.0058 34.9215C57.9991 28.9543 55.6252 23.234 51.4059 19.0143C47.1866 14.795 41.4656 12.4218 35.4988 12.415H35.4993ZM35.4993 55.0279C30.1691 55.0218 25.0585 52.9012 21.2889 49.1318C17.5193 45.3622 15.3993 40.2518 15.3932 34.9208C16.4976 8.24647 54.5061 8.25504 55.6061 34.9208V34.9213C55.5999 40.2516 53.4799 45.3627 49.7103 49.1323C45.9408 52.9013 40.8298 55.0219 35.4989 55.028L35.4993 55.0279Z" fill="#02B573"/>
<path d="M47.9537 29.7451L40.091 28.6022L36.5748 21.4778C36.3684 21.0738 35.9532 20.8193 35.4989 20.8193C35.0453 20.8193 34.6301 21.0738 34.4236 21.4778L30.9075 28.6022L23.0459 29.7451H23.0453C22.5933 29.8104 22.2178 30.1274 22.0766 30.5615C21.9354 30.9962 22.0532 31.4728 22.3807 31.792L28.0699 37.3365L26.7267 45.1668C26.6491 45.6172 26.8344 46.072 27.2038 46.341C27.5738 46.6094 28.0637 46.6451 28.4683 46.4325L35.4996 42.7349L42.5315 46.4325C42.936 46.6451 43.426 46.6094 43.7954 46.341C44.1654 46.072 44.3501 45.6172 44.2725 45.1668L42.9293 37.3365L48.6185 31.792H48.619C48.9394 31.4706 49.0532 30.9968 48.9131 30.5649C48.7725 30.133 48.4025 29.8165 47.9539 29.7451H47.9537ZM40.803 36.0581C40.52 36.3338 40.3911 36.7311 40.4575 37.1206L41.496 43.1759L36.058 40.3165C35.7082 40.1334 35.2902 40.1334 34.9409 40.3165L29.5034 43.1759L30.5419 37.1206H30.5414C30.6078 36.7311 30.4789 36.3338 30.1959 36.0581L25.7969 31.7695L31.8768 30.8862C32.2674 30.8292 32.605 30.5837 32.7797 30.2299L35.499 24.7205L38.2183 30.2299H38.2188C38.3935 30.5837 38.7311 30.8292 39.1217 30.8862L45.202 31.7695L40.803 36.0581Z" fill="#02B573"/>
</svg>
