<svg width="75" height="79" viewBox="0 0 75 79" fill="none" xmlns="http://www.w3.org/2000/svg">
<path d="M2.11322 66.6322H5.51222V28.6708C5.51222 28.0084 6.04961 27.471 6.712 27.471H36.692C38.2701 27.471 38.2701 29.8711 36.692 29.8711H7.91199V66.6326H67.0863V29.8711H49.9406C48.3624 29.8711 48.3624 27.471 49.9406 27.471H68.2863C68.9487 27.471 69.4861 28.0084 69.4861 28.6708V66.6322H72.8883C73.5507 66.6322 74.0881 67.1696 74.0881 67.832V73.409C74.0881 76.0602 71.9168 78.2327 69.2644 78.2327H5.73582C3.08182 78.2327 0.912109 76.0614 0.912109 73.409V67.832C0.912109 67.1696 1.4495 66.6322 2.11188 66.6322H2.11322ZM67.5304 1.18361C67.5304 -0.394536 69.9305 -0.394536 69.9305 1.18361V3.74718C72.2095 4.29685 73.8379 6.35318 73.8379 8.71375C73.8379 10.2919 71.4378 10.2919 71.4378 8.71375C71.4378 7.67078 70.8519 6.74275 69.9305 6.28518V11.563C75.1755 12.8309 75.0254 20.2656 69.9305 21.4939V24.0565C69.9305 25.6346 67.5304 25.6346 67.5304 24.0565V21.4939C65.2447 20.9431 63.6229 18.8862 63.6229 16.5273C63.6229 14.9492 66.0231 14.9492 66.0231 16.5273C66.0231 17.5636 66.6051 18.4995 67.5304 18.9559V13.6786C62.4327 12.4492 62.2882 5.01118 67.5304 3.74675V1.18318V1.18361ZM69.9305 14.0993V18.9559C71.9109 17.9721 71.9612 15.0999 69.9305 14.0993ZM67.5304 11.1406V6.28461C65.4997 7.29298 65.5499 10.1567 67.5304 11.1406ZM53.4461 18.9012C51.9259 18.496 52.5398 16.1807 54.0638 16.5865L59.7608 18.1116C60.3998 18.2818 60.7792 18.9392 60.6096 19.5782L59.0817 25.2758C58.6766 26.7959 56.3613 26.182 56.767 24.658L57.5477 21.749L17.3891 44.9333C16.0264 45.7146 14.84 43.6414 16.1989 42.8619L56.3517 19.6804L53.446 18.9025L53.4461 18.9012ZM15.7832 56.1598C14.2051 56.1598 14.2051 53.7596 15.7832 53.7596H58.9832C60.5614 53.7596 60.5614 56.1598 58.9832 56.1598H15.7832ZM15.7218 52.1498C14.3926 52.9801 13.1293 50.9556 14.4573 50.1258L24.0706 44.1029C24.5846 43.7815 25.2497 43.9009 25.6248 44.3568L29.5326 49.1218L39.8356 38.7122C40.3016 38.2446 41.0599 38.2418 41.5282 38.7078L47.9942 45.9633L54.3318 48.3992L58.6716 41.5778C59.5154 40.2541 61.5288 41.5398 60.6862 42.8607L55.8229 50.5047C55.5244 50.9734 54.9284 51.1838 54.3893 50.9779L46.954 48.1196C46.7431 48.0593 46.5478 47.941 46.3921 47.7653L40.6377 41.3043L30.2097 51.8283C29.7002 52.2468 28.9463 52.1731 28.5278 51.6636L24.4452 46.6832L15.7221 52.1486L15.7218 52.1498ZM46.6961 69.0326V70.738C46.6961 71.7347 45.8814 72.5506 44.8836 72.5506H30.1178C29.1201 72.5506 28.3053 71.7353 28.3053 70.738V69.0326H3.31241V73.4093C3.31241 74.7425 4.40114 75.8329 5.73598 75.8329H69.2646C70.5966 75.8329 71.6881 74.7414 71.6881 73.4093V69.0326H46.6953H46.6961ZM43.0867 33.6098C41.5086 33.6098 41.5086 31.2096 43.0867 31.2096H64.431C65.0934 31.2096 65.6308 31.747 65.6308 32.4094V64.0922C65.6308 64.7546 65.0934 65.292 64.431 65.292H10.3367C9.67431 65.292 9.13693 64.7546 9.13693 64.0922V32.4094C9.13693 31.747 9.67431 31.2096 10.3367 31.2096H30.4596C32.0377 31.2096 32.0377 33.6098 30.4596 33.6098H11.5367V62.8926H63.231V33.6098H43.0867Z" fill="#02B573"/>
</svg>
