<svg width="237" height="70" viewBox="0 0 237 70" fill="none" xmlns="http://www.w3.org/2000/svg">
<path d="M14.8364 45.0754C17.7284 43.3123 20.629 41.5597 23.3636 39.5851C26.308 37.4586 29.0741 35.0804 31.613 32.4611C32.6719 31.3689 33.8182 30.3397 34.7461 29.1428C37.43 25.6812 39.9026 22.0781 41.3879 17.9019C41.3948 17.8809 41.3669 17.8495 41.3022 17.6957C40.619 18.9643 39.5182 19.7961 38.7755 20.9511C38.1919 21.8597 37.3899 22.6373 36.6297 23.4184C34.2481 25.8682 31.765 28.2044 29.0898 30.3432C25.644 33.0971 22.0549 35.6343 18.2176 37.8115C16.2361 38.9368 14.2196 40.001 12.1717 41.004C11.5217 41.322 11.2124 41.1473 10.9905 40.5637C10.3527 38.8914 9.95776 37.151 9.58557 35.4071C8.82895 31.8704 8.36589 28.2936 8.14223 24.68C7.94128 21.4299 7.91682 18.1867 8.12126 14.9366C8.15271 14.4333 8.28901 14.3582 8.78527 14.3774C12.7728 14.5295 16.7446 14.4386 20.7006 13.7676C22.6787 13.4321 24.5431 12.7279 26.481 12.2911C27.8125 11.9905 29.0147 11.3859 30.2606 10.9019C31.966 10.2396 33.5823 9.34498 35.2283 8.5342C35.5831 8.35946 35.8714 8.25986 36.268 8.49226C38.3631 9.71892 40.6015 10.6922 42.8592 11.5187C46.1372 12.7174 49.5062 13.7117 53.0149 14.0664C54.3726 14.2044 55.7321 14.3268 57.1999 14.4683C51.6607 21.5522 45.4558 27.8637 38.2146 33.1286C31.0451 38.3427 23.3951 42.5976 14.8364 45.0754Z" fill="#3ABFE0"/>
<path d="M62.012 31.0684C60.9041 32.8717 59.7124 34.6103 58.3582 36.2459C57.4199 37.3782 56.6563 38.6555 55.6585 39.7494C53.6717 41.9284 51.8143 44.2279 49.6353 46.2269C45.4923 50.0292 41.2112 53.648 36.2556 56.3792C35.7768 56.643 36.315 56.9086 35.6755 57.2389C36.4111 57.335 35.9935 57.2476 36.509 57.0414C39.1772 55.9738 41.8892 55.018 44.4229 53.6218C50.191 50.4451 55.1518 46.2723 59.6286 41.488C59.8068 41.2975 59.9868 41.1071 60.172 40.9219C60.2069 40.8869 60.2698 40.8799 60.3293 40.8555C60.5145 40.9848 60.4306 41.1682 60.3852 41.3115C57.806 49.2079 53.8675 56.2464 47.3742 61.6231C44.187 64.2616 40.6153 66.1855 36.4898 66.9351C35.2072 67.1675 34.0207 66.7324 32.8412 66.3672C27.475 64.7054 23.2604 61.3749 19.6625 57.1707C19.2868 56.7321 18.9373 56.2708 18.511 55.7396C20.7476 55.2207 22.8917 54.693 24.9973 54.0255C33.32 51.3887 40.8425 47.1932 48.019 42.3005C50.7274 40.4536 53.2786 38.4126 55.8385 36.3752C57.9668 34.682 59.8627 32.7371 61.8792 30.9216C61.9229 30.9723 61.9683 31.0212 62.012 31.0684Z" fill="#3ABFE0"/>
<path d="M59.7649 8.70369C64.8323 6.33075 69.8036 4.0015 74.8675 1.6303C74.2856 5.20544 73.833 8.7002 73.2878 12.1827C73.0152 13.9179 72.6361 15.6425 72.4998 17.4004C72.4858 17.5839 72.5731 17.8407 72.3442 17.9526C72.0647 18.0889 71.9458 17.8145 71.7693 17.6817C71.0057 17.1051 70.2229 16.5529 69.475 15.9571C69.0836 15.646 68.8879 15.5901 68.5804 16.1038C66.8959 18.9224 64.9022 21.526 62.7267 23.974C60.9775 25.9433 59.2127 27.9056 57.2644 29.6897C52.0205 34.4933 46.3939 38.7848 40.3008 42.4596C35.9463 45.0859 31.4276 47.3732 26.6346 49.0926C21.8572 50.8068 16.975 52.0999 11.8972 52.4825C8.81827 52.7149 5.7359 52.6555 2.67799 52.1435C2.54169 52.1208 2.41763 52.0369 2.0332 51.8744C4.17549 51.8325 6.02422 51.5145 7.87294 51.1737C14.644 49.9261 21.0639 47.6423 27.2182 44.6001C41.7476 37.4184 53.317 26.7961 62.842 13.8183C63.2841 13.2172 64.1228 12.6003 63.983 11.9643C63.8642 11.4261 62.9294 11.0661 62.351 10.6328C61.521 10.0107 60.6875 9.39216 59.7649 8.70369Z" fill="#02B573"/>
<path d="M35.6755 8.37169C35.6755 8.37169 46.027 14.3792 57.1945 14.4718C57.1945 14.4718 46.0113 28.8405 35.6755 34.9196V27.9249C35.6755 27.9249 40.1139 22.5255 41.3004 17.6957C41.3004 17.6957 38.1079 22.0292 35.6755 24.3847V8.37169V8.37169Z" fill="#236A7B"/>
<path d="M2.03516 51.8744C2.03516 51.8744 11.7925 51.7713 18.5077 50.0746C24.5606 48.5474 30.6467 45.6136 35.6739 42.5801C40.7012 39.5467 48.1083 34.5492 50.6944 32.0504C53.2823 29.5517 62.5609 20.3622 66.6655 13.7589L74.8659 1.62856L72.3427 17.9508L68.8077 15.7212C68.8077 15.7212 61.135 29.328 44.6328 39.69C44.6328 39.69 29.621 49.692 18.5077 51.4865C9.29377 52.9753 5.32372 52.7673 2.03516 51.8744Z" fill="#006A43"/>
<path d="M35.6755 49.6535C35.6755 49.6535 53.2681 40.0866 62.3178 30.4481C62.3178 30.4481 51.7776 49.7479 35.6755 57.2406C35.6755 57.2406 43.4391 55.9948 60.6613 40.5112C60.6613 40.5112 54.2344 65.5477 35.6755 67.0015V49.6535Z" fill="#236A7B"/>
<path d="M93.9265 31.172V19.812H95.0465V31.172H93.9265Z" fill="white"/>
<path d="M99.0153 21.876V31.172H97.8953V19.812H98.8233L106.279 29.284V19.828H107.399V31.172H106.359L99.0153 21.876Z" fill="white"/>
<path d="M110.207 19.812L114.271 29.78L118.319 19.812H119.487L114.783 31.172H113.759L109.039 19.812H110.207Z" fill="white"/>
<path d="M121.114 31.172V19.812H122.234V31.172H121.114Z" fill="white"/>
<path d="M131.723 21.94C131.563 21.7587 131.376 21.5987 131.163 21.46C130.949 21.3107 130.709 21.1827 130.443 21.076C130.176 20.9693 129.888 20.884 129.579 20.82C129.28 20.756 128.96 20.724 128.619 20.724C127.627 20.724 126.896 20.916 126.427 21.3C125.968 21.6733 125.739 22.1853 125.739 22.836C125.739 23.284 125.845 23.636 126.059 23.892C126.283 24.148 126.629 24.356 127.099 24.516C127.568 24.676 128.165 24.8413 128.891 25.012C129.701 25.1827 130.4 25.3853 130.987 25.62C131.573 25.8547 132.027 26.1747 132.347 26.58C132.667 26.9747 132.827 27.5133 132.827 28.196C132.827 28.7187 132.725 29.172 132.523 29.556C132.32 29.94 132.037 30.26 131.675 30.516C131.312 30.772 130.88 30.964 130.379 31.092C129.877 31.2093 129.328 31.268 128.731 31.268C128.144 31.268 127.579 31.2093 127.035 31.092C126.501 30.964 125.995 30.7827 125.515 30.548C125.035 30.3027 124.587 29.9933 124.171 29.62L124.731 28.708C124.933 28.9213 125.173 29.124 125.451 29.316C125.739 29.4973 126.053 29.6627 126.395 29.812C126.747 29.9613 127.12 30.0787 127.515 30.164C127.92 30.2387 128.336 30.276 128.763 30.276C129.669 30.276 130.373 30.1107 130.875 29.78C131.387 29.4493 131.643 28.9587 131.643 28.308C131.643 27.8387 131.515 27.4653 131.259 27.188C131.003 26.9 130.619 26.6653 130.107 26.484C129.595 26.3027 128.965 26.1267 128.219 25.956C127.429 25.7747 126.763 25.572 126.219 25.348C125.675 25.124 125.264 24.8307 124.987 24.468C124.72 24.0947 124.587 23.604 124.587 22.996C124.587 22.292 124.757 21.7 125.099 21.22C125.451 20.7293 125.931 20.3613 126.539 20.116C127.147 19.86 127.845 19.732 128.635 19.732C129.136 19.732 129.6 19.7853 130.027 19.892C130.464 19.988 130.864 20.132 131.227 20.324C131.6 20.516 131.947 20.756 132.267 21.044L131.723 21.94Z" fill="white"/>
<path d="M142.85 20.804H138.802V31.172H137.682V20.804H133.634V19.812H142.85V20.804Z" fill="white"/>
<path d="M146.978 19.812H147.922L152.642 31.172H151.458L149.986 27.62H144.882L143.426 31.172H142.226L146.978 19.812ZM149.73 26.74L147.442 21.124L145.122 26.74H149.73Z" fill="white"/>
<path d="M157.848 31.172V19.812H165.304V20.804H158.968V24.98H164.312V25.908H158.968V31.172H157.848Z" fill="white"/>
<path d="M171.628 31.252C170.828 31.252 170.102 31.092 169.452 30.772C168.801 30.452 168.241 30.02 167.772 29.476C167.302 28.9213 166.94 28.3027 166.684 27.62C166.428 26.9267 166.3 26.2173 166.3 25.492C166.3 24.7347 166.433 24.0147 166.7 23.332C166.966 22.6387 167.34 22.0253 167.82 21.492C168.31 20.948 168.881 20.5213 169.532 20.212C170.182 19.892 170.886 19.732 171.644 19.732C172.444 19.732 173.169 19.8973 173.82 20.228C174.47 20.5587 175.025 21.0013 175.484 21.556C175.953 22.1107 176.316 22.7293 176.572 23.412C176.828 24.0947 176.956 24.7933 176.956 25.508C176.956 26.2653 176.822 26.9907 176.556 27.684C176.289 28.3667 175.916 28.98 175.436 29.524C174.956 30.0573 174.39 30.4787 173.74 30.788C173.089 31.0973 172.385 31.252 171.628 31.252ZM167.42 25.492C167.42 26.1107 167.521 26.708 167.724 27.284C167.926 27.8493 168.214 28.356 168.588 28.804C168.961 29.2413 169.404 29.5933 169.916 29.86C170.438 30.116 171.009 30.244 171.628 30.244C172.278 30.244 172.86 30.1107 173.372 29.844C173.894 29.5667 174.337 29.204 174.7 28.756C175.073 28.2973 175.356 27.7853 175.548 27.22C175.74 26.6547 175.836 26.0787 175.836 25.492C175.836 24.8733 175.734 24.2813 175.532 23.716C175.329 23.1507 175.036 22.644 174.652 22.196C174.278 21.748 173.836 21.396 173.324 21.14C172.812 20.884 172.246 20.756 171.628 20.756C170.988 20.756 170.406 20.8893 169.884 21.156C169.372 21.4227 168.929 21.7853 168.556 22.244C168.193 22.692 167.91 23.1987 167.708 23.764C167.516 24.3293 167.42 24.9053 167.42 25.492Z" fill="white"/>
<path d="M179.067 31.172V19.812H183.867C184.358 19.812 184.806 19.9133 185.211 20.116C185.616 20.3187 185.968 20.596 186.267 20.948C186.576 21.2893 186.811 21.6733 186.971 22.1C187.142 22.516 187.227 22.9427 187.227 23.38C187.227 23.924 187.12 24.436 186.907 24.916C186.704 25.396 186.411 25.8013 186.027 26.132C185.654 26.4627 185.211 26.6813 184.699 26.788L187.483 31.172H186.219L183.547 26.98H180.187V31.172H179.067ZM180.187 25.988H183.899C184.347 25.988 184.736 25.8653 185.067 25.62C185.398 25.3747 185.654 25.0547 185.835 24.66C186.016 24.2547 186.107 23.828 186.107 23.38C186.107 22.9213 186 22.5 185.787 22.116C185.584 21.7213 185.307 21.4067 184.955 21.172C184.614 20.9267 184.23 20.804 183.803 20.804H180.187V25.988Z" fill="white"/>
<path d="M197.152 30.18V31.172H189.52V19.812H197.008V20.804H190.64V24.9H196.192V25.844H190.64V30.18H197.152Z" fill="white"/>
<path d="M199.27 31.172V19.812H200.39V31.172H199.27Z" fill="white"/>
<path d="M207.799 31.252C207.042 31.252 206.338 31.092 205.687 30.772C205.036 30.4413 204.471 29.9987 203.991 29.444C203.511 28.8893 203.138 28.2707 202.871 27.588C202.615 26.9053 202.487 26.2013 202.487 25.476C202.487 24.708 202.615 23.9827 202.871 23.3C203.138 22.6067 203.506 21.9933 203.975 21.46C204.444 20.9267 204.999 20.5053 205.639 20.196C206.279 19.8867 206.978 19.732 207.735 19.732C208.855 19.732 209.767 19.9613 210.471 20.42C211.175 20.8787 211.708 21.476 212.071 22.212L211.207 22.788C210.844 22.084 210.359 21.5667 209.751 21.236C209.143 20.9053 208.466 20.74 207.719 20.74C207.09 20.74 206.519 20.8733 206.007 21.14C205.506 21.4067 205.074 21.764 204.711 22.212C204.348 22.66 204.071 23.1667 203.879 23.732C203.698 24.2973 203.607 24.884 203.607 25.492C203.607 26.132 203.714 26.74 203.927 27.316C204.14 27.8813 204.444 28.388 204.839 28.836C205.234 29.2733 205.687 29.62 206.199 29.876C206.722 30.1213 207.282 30.244 207.879 30.244C208.572 30.244 209.228 30.0733 209.847 29.732C210.466 29.38 211.058 28.8413 211.623 28.116V29.3C210.546 30.6013 209.271 31.252 207.799 31.252ZM211.447 26.452H208.919V25.588H212.391V31.172H211.447V26.452Z" fill="white"/>
<path d="M215.812 21.876V31.172H214.692V19.812H215.62L223.076 29.284V19.828H224.196V31.172H223.156L215.812 21.876Z" fill="white"/>
<path d="M93.9265 50.172V38.812H95.0465V50.172H93.9265Z" fill="white"/>
<path d="M99.0153 40.876V50.172H97.8953V38.812H98.8233L106.279 48.284V38.828H107.399V50.172H106.359L99.0153 40.876Z" fill="white"/>
<path d="M110.207 38.812L114.271 48.78L118.319 38.812H119.487L114.783 50.172H113.759L109.039 38.812H110.207Z" fill="white"/>
<path d="M128.746 49.18V50.172H121.114V38.812H128.602V39.804H122.234V43.9H127.786V44.844H122.234V49.18H128.746Z" fill="white"/>
<path d="M137.442 40.94C137.282 40.7587 137.095 40.5987 136.882 40.46C136.668 40.3107 136.428 40.1827 136.162 40.076C135.895 39.9693 135.607 39.884 135.298 39.82C134.999 39.756 134.679 39.724 134.338 39.724C133.346 39.724 132.615 39.916 132.146 40.3C131.687 40.6733 131.458 41.1853 131.458 41.836C131.458 42.284 131.564 42.636 131.778 42.892C132.002 43.148 132.348 43.356 132.818 43.516C133.287 43.676 133.884 43.8413 134.61 44.012C135.42 44.1827 136.119 44.3853 136.706 44.62C137.292 44.8547 137.746 45.1747 138.066 45.58C138.386 45.9747 138.546 46.5133 138.546 47.196C138.546 47.7187 138.444 48.172 138.242 48.556C138.039 48.94 137.756 49.26 137.394 49.516C137.031 49.772 136.599 49.964 136.098 50.092C135.596 50.2093 135.047 50.268 134.45 50.268C133.863 50.268 133.298 50.2093 132.754 50.092C132.22 49.964 131.714 49.7827 131.234 49.548C130.754 49.3027 130.306 48.9933 129.89 48.62L130.45 47.708C130.652 47.9213 130.892 48.124 131.17 48.316C131.458 48.4973 131.772 48.6627 132.114 48.812C132.466 48.9613 132.839 49.0787 133.234 49.164C133.639 49.2387 134.055 49.276 134.482 49.276C135.388 49.276 136.092 49.1107 136.594 48.78C137.106 48.4493 137.362 47.9587 137.362 47.308C137.362 46.8387 137.234 46.4653 136.978 46.188C136.722 45.9 136.338 45.6653 135.826 45.484C135.314 45.3027 134.684 45.1267 133.938 44.956C133.148 44.7747 132.482 44.572 131.938 44.348C131.394 44.124 130.983 43.8307 130.706 43.468C130.439 43.0947 130.306 42.604 130.306 41.996C130.306 41.292 130.476 40.7 130.818 40.22C131.17 39.7293 131.65 39.3613 132.258 39.116C132.866 38.86 133.564 38.732 134.354 38.732C134.855 38.732 135.319 38.7853 135.746 38.892C136.183 38.988 136.583 39.132 136.946 39.324C137.319 39.516 137.666 39.756 137.986 40.044L137.442 40.94Z" fill="white"/>
<path d="M148.569 39.804H144.521V50.172H143.401V39.804H139.353V38.812H148.569V39.804Z" fill="white"/>
<path d="M160.334 50.172V40.924L156.222 48.108H155.518L151.39 40.924V50.172H150.27V38.812H151.422L155.854 46.588L160.318 38.812H161.454V50.172H160.334Z" fill="white"/>
<path d="M171.934 49.18V50.172H164.302V38.812H171.79V39.804H165.422V43.9H170.974V44.844H165.422V49.18H171.934Z" fill="white"/>
<path d="M175.172 40.876V50.172H174.052V38.812H174.98L182.436 48.284V38.828H183.556V50.172H182.516L175.172 40.876Z" fill="white"/>
<path d="M194.475 39.804H190.427V50.172H189.307V39.804H185.259V38.812H194.475V39.804Z" fill="white"/>
<path d="M202.817 40.94C202.657 40.7587 202.47 40.5987 202.257 40.46C202.043 40.3107 201.803 40.1827 201.537 40.076C201.27 39.9693 200.982 39.884 200.673 39.82C200.374 39.756 200.054 39.724 199.713 39.724C198.721 39.724 197.99 39.916 197.521 40.3C197.062 40.6733 196.833 41.1853 196.833 41.836C196.833 42.284 196.939 42.636 197.153 42.892C197.377 43.148 197.723 43.356 198.193 43.516C198.662 43.676 199.259 43.8413 199.985 44.012C200.795 44.1827 201.494 44.3853 202.081 44.62C202.667 44.8547 203.121 45.1747 203.441 45.58C203.761 45.9747 203.921 46.5133 203.921 47.196C203.921 47.7187 203.819 48.172 203.617 48.556C203.414 48.94 203.131 49.26 202.769 49.516C202.406 49.772 201.974 49.964 201.473 50.092C200.971 50.2093 200.422 50.268 199.825 50.268C199.238 50.268 198.673 50.2093 198.129 50.092C197.595 49.964 197.089 49.7827 196.609 49.548C196.129 49.3027 195.681 48.9933 195.265 48.62L195.825 47.708C196.027 47.9213 196.267 48.124 196.545 48.316C196.833 48.4973 197.147 48.6627 197.489 48.812C197.841 48.9613 198.214 49.0787 198.609 49.164C199.014 49.2387 199.43 49.276 199.857 49.276C200.763 49.276 201.467 49.1107 201.969 48.78C202.481 48.4493 202.737 47.9587 202.737 47.308C202.737 46.8387 202.609 46.4653 202.353 46.188C202.097 45.9 201.713 45.6653 201.201 45.484C200.689 45.3027 200.059 45.1267 199.313 44.956C198.523 44.7747 197.857 44.572 197.313 44.348C196.769 44.124 196.358 43.8307 196.081 43.468C195.814 43.0947 195.681 42.604 195.681 41.996C195.681 41.292 195.851 40.7 196.193 40.22C196.545 39.7293 197.025 39.3613 197.633 39.116C198.241 38.86 198.939 38.732 199.729 38.732C200.23 38.732 200.694 38.7853 201.121 38.892C201.558 38.988 201.958 39.132 202.321 39.324C202.694 39.516 203.041 39.756 203.361 40.044L202.817 40.94Z" fill="white"/>
<path d="M209.973 50.172V38.812H211.093V49.18H217.653V50.172H209.973Z" fill="white"/>
<path d="M225.584 39.804H221.536V50.172H220.416V39.804H216.368V38.812H225.584V39.804Z" fill="white"/>
<path d="M227.286 50.172V38.812H231.142C232.347 38.812 233.35 39.068 234.15 39.58C234.961 40.0813 235.569 40.764 235.974 41.628C236.379 42.4813 236.582 43.4307 236.582 44.476C236.582 45.628 236.358 46.6307 235.91 47.484C235.473 48.3373 234.843 48.9987 234.022 49.468C233.211 49.9373 232.251 50.172 231.142 50.172H227.286ZM235.462 44.476C235.462 43.5693 235.291 42.764 234.95 42.06C234.619 41.356 234.134 40.8067 233.494 40.412C232.854 40.0067 232.07 39.804 231.142 39.804H228.406V49.18H231.142C232.081 49.18 232.87 48.972 233.51 48.556C234.15 48.14 234.635 47.58 234.966 46.876C235.297 46.1613 235.462 45.3613 235.462 44.476Z" fill="white"/>
</svg>
