<svg width="55" height="50" viewBox="0 0 55 50" fill="none" xmlns="http://www.w3.org/2000/svg">
<path d="M10.4742 32.1967C12.5398 30.9373 14.6117 29.6855 16.565 28.2751C18.6681 26.7561 20.6439 25.0574 22.4574 23.1865C23.2138 22.4064 24.0326 21.6712 24.6953 20.8163C26.6125 18.3437 28.3786 15.7701 29.4395 12.7871C29.4445 12.7721 29.4245 12.7496 29.3783 12.6398C28.8903 13.5459 28.104 14.14 27.5735 14.9651C27.1566 15.6141 26.5837 16.1695 26.0408 16.7274C24.3396 18.4773 22.566 20.146 20.6551 21.6737C18.1938 23.6408 15.6302 25.4531 12.8893 27.0082C11.4739 27.812 10.0336 28.5721 8.57077 29.2886C8.10647 29.5157 7.88555 29.3909 7.72704 28.974C7.27147 27.7796 6.98939 26.5364 6.72354 25.2908C6.1831 22.7646 5.85235 20.2097 5.69259 17.6286C5.54905 15.307 5.53158 12.9905 5.67761 10.669C5.70008 10.3095 5.79743 10.2559 6.1519 10.2696C9.00013 10.3782 11.8371 10.3133 14.6629 9.834C16.0758 9.59436 17.4075 9.09136 18.7917 8.77933C19.7428 8.56465 20.6015 8.1328 21.4914 7.78707C22.7096 7.31403 23.8641 6.67499 25.0398 6.09586C25.2932 5.97104 25.4991 5.8999 25.7825 6.0659C27.279 6.94209 28.8778 7.63729 30.4904 8.22766C32.8319 9.08387 35.2383 9.79406 37.7445 10.0474C38.7143 10.146 39.6853 10.2334 40.7338 10.3345C36.7772 15.3944 32.3451 19.9026 27.1729 23.6633C22.0518 27.3877 16.5875 30.4269 10.4742 32.1967Z" fill="#3ABFE0"/>
<path d="M44.1713 22.1917C43.3799 23.4798 42.5287 24.7217 41.5614 25.8899C40.8912 26.6987 40.3458 27.6111 39.6331 28.3924C38.214 29.9488 36.8872 31.5914 35.3308 33.0192C32.3715 35.7351 29.3136 38.32 25.7739 40.2708C25.4319 40.4593 25.8163 40.649 25.3595 40.8849C25.8849 40.9536 25.5866 40.8912 25.9548 40.7439C27.8607 39.9813 29.7978 39.2985 31.6076 38.3013C35.7277 36.0322 39.2711 33.0517 42.4688 29.6343C42.5961 29.4982 42.7247 29.3622 42.857 29.2299C42.8819 29.2049 42.9269 29.1999 42.9693 29.1825C43.1016 29.2748 43.0417 29.4059 43.0093 29.5082C41.167 35.1485 38.3537 40.176 33.7157 44.0165C31.4391 45.9011 28.8879 47.2753 25.9411 47.8108C25.025 47.9768 24.1775 47.666 23.335 47.4051C19.502 46.2182 16.4915 43.8392 13.9216 40.8362C13.6533 40.523 13.4037 40.1935 13.0991 39.814C14.6967 39.4433 16.2282 39.0664 17.7322 38.5896C23.677 36.7062 29.0502 33.7094 34.1763 30.2147C36.1109 28.8954 37.9331 27.4376 39.7616 25.9823C41.2818 24.7728 42.6361 23.3837 44.0764 22.0869C44.1076 22.1231 44.1401 22.158 44.1713 22.1917Z" fill="#3ABFE0"/>
<path d="M42.566 6.21693C46.1856 4.52197 49.7365 2.85821 53.3536 1.16451C52.9379 3.71817 52.6147 6.21443 52.2253 8.70195C52.0306 9.94134 51.7597 11.1732 51.6623 12.4289C51.6524 12.5599 51.7148 12.7434 51.5513 12.8233C51.3516 12.9206 51.2667 12.7247 51.1406 12.6298C50.5952 12.2179 50.036 11.8235 49.5018 11.3979C49.2223 11.1757 49.0825 11.1358 48.8628 11.5027C47.6596 13.516 46.2355 15.3757 44.6816 17.1243C43.4322 18.531 42.1716 19.9326 40.7799 21.2069C37.0343 24.638 33.0153 27.7034 28.6631 30.3283C25.5528 32.2042 22.3251 33.838 18.9015 35.0662C15.4891 36.2906 12.0018 37.2142 8.37478 37.4875C6.17558 37.6535 3.97388 37.6111 1.78966 37.2454C1.69231 37.2292 1.60369 37.1692 1.3291 37.0532C2.85931 37.0232 4.17983 36.7961 5.50034 36.5527C10.3368 35.6615 14.9225 34.0302 19.3184 31.8572C29.6966 26.7274 37.9604 19.14 44.7639 9.8702C45.0797 9.44084 45.6788 9.00025 45.579 8.54593C45.4941 8.16151 44.8264 7.90439 44.4132 7.59486C43.8204 7.15053 43.225 6.70869 42.566 6.21693Z" fill="#02B573"/>
<path d="M25.3594 5.97978C25.3594 5.97978 32.7533 10.2708 40.7301 10.337C40.7301 10.337 32.7421 20.6004 25.3594 24.9426V19.9463C25.3594 19.9463 28.5296 16.0896 29.3771 12.6398C29.3771 12.6398 27.0968 15.7351 25.3594 17.4176V5.97978Z" fill="#236A7B"/>
<path d="M1.33057 37.0532C1.33057 37.0532 8.30011 36.9795 13.0967 35.7676C17.4202 34.6767 21.7674 32.5811 25.3583 30.4144C28.9491 28.2476 34.2399 24.678 36.0872 22.8932C37.9357 21.1083 44.5632 14.5444 47.4951 9.82776L53.3525 1.16325L51.5502 12.822L49.0253 11.2294C49.0253 11.2294 43.5447 20.9486 31.7574 28.35C31.7574 28.35 21.0348 35.4943 13.0967 36.7761C6.51529 37.8395 3.67954 37.691 1.33057 37.0532Z" fill="#006A43"/>
<path d="M25.3594 35.4668C25.3594 35.4668 37.9255 28.6333 44.3896 21.7486C44.3896 21.7486 36.8609 35.5342 25.3594 40.8862C25.3594 40.8862 30.9048 39.9963 43.2064 28.9366C43.2064 28.9366 38.6157 46.8198 25.3594 47.8582V35.4668Z" fill="#236A7B"/>
</svg>
