<svg width="70" height="71" viewBox="0 0 70 71" fill="none" xmlns="http://www.w3.org/2000/svg">
<path d="M46.6668 35.4C54.7168 35.4 61.2501 28.8667 61.2501 20.8167C61.2501 12.7667 54.7168 6.23334 46.6668 6.23334C38.6168 6.23334 32.0835 12.7667 32.0835 20.8167C32.0835 28.8667 38.6168 35.4 46.6668 35.4ZM62.5626 51.7333C61.4251 50.5667 59.996 49.9833 58.3335 49.9833H37.9168L31.8501 47.8542L32.8126 45.1125L37.9168 47.0667H46.0835C47.1043 47.0667 47.921 46.6583 48.5918 45.9875C49.2626 45.3167 49.5835 44.5 49.5835 43.5958C49.5835 42.0208 48.8251 40.9417 47.3084 40.3292L26.1043 32.4833H20.4168V58.7333L40.8335 64.5667L64.2543 55.8167C64.2835 54.2708 63.7001 52.9 62.5626 51.7333ZM14.5835 32.4833H2.87012V64.5667H14.5835V32.4833Z" fill="#02B573"/>
</svg>
