<svg width="98" height="70" viewBox="0 0 98 70" fill="none" xmlns="http://www.w3.org/2000/svg">
<path d="M1.23981 59.2493H22.6155V60.4486V68.9392C22.6155 69.2205 22.7273 69.4907 22.9265 69.6898C23.1249 69.8882 23.3951 70 23.6764 70H74.3649C74.6462 70 74.9164 69.8882 75.1156 69.6898C75.3147 69.4907 75.4265 69.2205 75.4265 68.9392V60.459V59.2597H96.7586C97.04 59.2597 97.3102 59.1479 97.5093 58.9495C97.7084 58.7504 97.8202 58.4801 97.8202 58.1988V52.2557C97.8165 48.2018 96.5062 44.2575 94.0839 41.0075C91.6624 37.7576 88.257 35.3752 84.3733 34.2129C88.3909 32.3747 91.1922 28.6124 91.8023 24.2372C91.7971 24.2091 91.7971 24.1802 91.8023 24.1521C91.8741 23.5961 91.9133 23.0357 91.9192 22.4753C91.9222 18.4162 90.0152 14.5925 86.7712 12.1524C83.5272 9.71237 79.3244 8.94103 75.426 10.0692C71.5269 11.1982 68.3858 14.095 66.9466 17.8906V17.6041V17.5508C66.8082 11.2805 63.4064 5.53635 57.9741 2.40191C52.541 -0.732529 45.8663 -0.803599 40.3682 2.21461C34.8699 5.23288 31.3468 10.9021 31.0745 17.1687C31.0374 17.3183 31.0374 17.4752 31.0745 17.6247V17.7521C29.5006 13.7714 26.0553 10.8303 21.877 9.90034C17.6987 8.97053 13.3316 10.1728 10.2178 13.1104C7.10402 16.0479 5.64947 20.3381 6.3342 24.5637C7.01973 28.7887 9.75519 32.3999 13.6373 34.2024L13.1494 34.3401V34.3409C9.37384 35.5764 6.08684 37.9751 3.7571 41.1931C1.42735 44.4105 0.175584 48.283 0.179943 52.2554V58.1883V58.1876C0.179943 58.4696 0.291727 58.7391 0.490865 58.9382C0.690011 59.1374 0.960226 59.2491 1.24153 59.2491L1.23981 59.2493ZM15.5996 54.2395L17.722 40.5173H20.3434L22.4658 54.2395L18.9849 56.8505L15.5996 54.2395ZM16.2577 35.7623L16.257 35.763C18.0878 35.4551 19.9564 35.4551 21.7864 35.763L20.5871 38.3949H17.403L16.2577 35.7623ZM22.8376 57.1267H22.158L22.922 56.5433C22.848 56.7343 22.8265 56.9364 22.7947 57.1274L22.8376 57.1267ZM22.3601 39.6156L23.8881 36.2509V36.2516C25.6086 36.7891 27.2322 37.599 28.6956 38.6502C29.1213 39.0425 29.5788 39.3971 30.0652 39.7118C30.3302 39.945 30.6063 40.1574 30.8506 40.4121C31.0949 40.6668 31.1371 40.7304 31.2748 40.8792V40.8785C28.0834 43.7872 25.6499 47.4301 24.185 51.4915L22.3601 39.6156ZM24.695 67.8898V60.4601V59.2608C24.695 58.8573 24.695 58.5494 24.769 58.1992C24.843 57.849 24.843 57.4878 24.8963 57.1376V57.1383C25.6566 51.7172 28.2167 46.7082 32.1661 42.9171L33.5667 44.1801L35.5515 45.9627L37.1225 47.3848L37.8339 48.0215L37.4304 48.6049L36.5813 49.8471L35.8173 50.9087C35.7381 51.0279 35.6841 51.1611 35.6582 51.301C35.6108 51.4787 35.6108 51.6653 35.6582 51.843C35.6907 51.9436 35.7374 52.0406 35.7959 52.1295L36.7301 53.4457L37.7917 54.9419L46.9398 67.8897L24.695 67.8898ZM39.9881 47.0561L35.265 42.8112L34.0131 41.6756L33.8325 41.5164C33.9598 41.4106 34.0975 41.3151 34.2359 41.2196L34.5224 40.9967L34.7556 40.8272L35.074 40.594L35.8698 40.0528C36.2096 39.8404 36.5494 39.6175 36.9314 39.4162H36.9847C37.6317 39.0445 38.301 38.7158 38.9909 38.3546L39.5958 38.0999C39.8823 37.9829 40.1473 37.8556 40.4345 37.7497L41.2622 41.1781L41.7923 43.3013L46.7167 63.7105L37.9818 51.5887L40.1042 48.4046C40.3944 47.9856 40.3448 47.4193 39.988 47.0565L39.9881 47.0561ZM48.9984 64.4614L43.9887 43.639L43.7237 42.5774L43.469 41.5158L42.4074 37.1325V37.1332C44.5476 36.4995 46.7663 36.1708 48.9982 36.1568C51.2383 36.1605 53.4667 36.4751 55.621 37.091L54.5593 41.4848L54.2943 42.5464L54.0396 43.608L48.9984 64.4614ZM48.9984 33.8106C45.3413 33.7943 41.8011 32.5188 38.9733 30.1994C36.146 27.8801 34.2027 24.6582 33.4714 21.075C33.3492 20.4221 33.2641 19.7632 33.2167 19.1006H33.3551C37.3365 19.5988 41.3712 19.4774 45.3154 18.7401C45.7507 18.6446 46.1749 18.5491 46.568 18.4432V18.4425C47.5971 18.1723 48.6016 17.8177 49.5715 17.3816C50.2504 17.0737 50.9063 16.7191 51.5347 16.32C52.4505 15.7345 53.2759 15.0201 53.9867 14.1976C54.4109 14.7921 54.9735 15.5242 55.6531 16.32C55.9611 16.6702 56.3002 17.0204 56.7148 17.3816C57.1286 17.7422 57.4787 18.0931 57.9037 18.4432L57.9029 18.4425C58.4285 18.8748 58.9816 19.2716 59.5583 19.6314C61.0537 20.5909 62.7816 21.1268 64.5576 21.1809C63.8032 24.7499 61.8465 27.9518 59.0142 30.251C56.1826 32.5497 52.646 33.806 48.9985 33.8104L48.9984 33.8106ZM57.9027 48.4458L60.0251 51.6299L51.3547 63.8138L56.2681 43.4785L56.5442 42.3644L56.8093 41.3028L57.648 37.8323L58.0722 38.0018L58.603 38.235C59.1657 38.4793 59.7387 38.7444 60.2798 39.0309L60.5241 39.1582C61.1075 39.4662 61.6812 39.8052 62.2328 40.1561L63.3469 40.9312L63.7608 41.2392L64.2279 41.5894L63.8562 41.7803L62.5718 42.9375L57.9974 47.0551H57.9982C57.6169 47.4245 57.5673 48.0182 57.8812 48.4454L57.9027 48.4458ZM73.3018 67.8885H51.1206L60.1627 55.153L61.2243 53.6569L62.2326 52.2347C62.2326 52.2347 62.2326 52.1496 62.2963 52.1178V52.117C62.4303 51.8313 62.4303 51.5011 62.2963 51.2153C62.2756 51.1435 62.243 51.0754 62.2008 51.0133L61.3731 49.8036L60.5025 48.551L60.142 48.0313L60.7787 47.4583L62.3177 46.068L64.3026 44.2854L65.7884 42.9484L66.1703 43.2986V43.2978C69.909 47.0201 72.3215 51.8676 73.0366 57.0949C73.0366 57.4451 73.1424 57.7952 73.1743 58.1565C73.2061 58.517 73.1743 58.868 73.1743 59.2181C73.1743 59.5683 73.238 60.014 73.238 60.4174L73.3018 67.8885ZM73.8326 51.4595V51.4588C72.5164 47.835 70.4183 44.5452 67.6881 41.8222C67.3801 41.5142 67.0618 41.207 66.7331 40.9197C66.9344 40.7073 67.1573 40.5059 67.3697 40.2934V40.2942C68.3677 39.7375 69.2679 39.0201 70.0334 38.1717C71.2031 37.4166 72.4661 36.817 73.7904 36.3884L74.1087 36.2825L75.6264 39.636L73.8326 51.4595ZM75.2014 57.1695C75.2014 56.9889 75.2014 56.809 75.1378 56.6387L75.8381 57.1695H75.2014ZM75.5309 54.2401L77.6533 40.5179L80.3065 40.5171L82.429 54.2394L78.9695 56.8504L75.5309 54.2401ZM76.189 35.7629C78.0191 35.4549 79.8884 35.4549 81.7184 35.7629L80.5191 38.3947H77.335L76.189 35.7629ZM90.7819 40.443C93.9334 43.5649 95.7028 47.8187 95.6954 52.2553V57.1265H82.1107L84.2331 55.5452H84.2339C84.5618 55.2986 84.7188 54.8856 84.6366 54.4836L82.3127 39.6146L83.8407 36.2499V36.2506C86.471 37.0538 88.8629 38.4937 90.8032 40.4429L90.7819 40.443ZM79.0015 33.2576C76.3541 33.2569 73.7994 32.2834 71.8235 30.5229C69.8468 28.7617 68.5869 26.3357 68.2825 23.7061C71.3533 24.0874 74.4678 23.9038 77.4726 23.1649C79.3545 22.717 81.0809 21.7709 82.4719 20.4266C83.3781 21.6821 84.4825 22.7823 85.7404 23.6846C86.8323 24.4841 88.119 24.9757 89.4655 25.1067C88.8777 27.4365 87.5288 29.5026 85.6329 30.9795C83.7377 32.4557 81.4036 33.2575 79.0013 33.2575L79.0015 33.2576ZM79.0015 11.6715C81.8628 11.6745 84.607 12.8123 86.6303 14.8355C88.6536 16.8596 89.7923 19.603 89.7951 22.4651V22.953C86.2505 22.8042 83.4906 18.0604 83.4269 18.0181C83.2278 17.6717 82.8517 17.4666 82.4534 17.4866C82.0544 17.5066 81.7005 17.7487 81.5377 18.1136C81.5377 18.1136 79.2665 22.6244 68.25 21.5102L68.2507 21.5094C68.4817 18.817 69.7143 16.3094 71.7051 14.4825C73.6958 12.6547 76.2994 11.6405 79.0015 11.6397L79.0015 11.6715ZM73.6313 34.2033L73.1434 34.341L73.1427 34.3418C72.5875 34.5216 72.0419 34.7304 71.5088 34.9673C71.5192 34.7623 71.5192 34.5572 71.5088 34.3521C71.5103 33.9287 71.2601 33.5452 70.8714 33.3757C68.9719 32.5369 67.8896 30.4144 67.2839 27.9418H67.2846C68.5972 30.7105 70.8447 32.9278 73.6312 34.2033L73.6313 34.2033ZM69.3865 34.957H69.3857C69.2406 35.5766 68.9415 36.1503 68.5159 36.6234C67.8644 37.3659 67.0841 37.9841 66.2129 38.449C65.7568 38.7037 65.2579 38.9479 64.7271 39.1811C63.3656 38.1736 61.908 37.3022 60.3755 36.5804H60.2586L59.3458 36.1769L58.9001 35.9859L58.2531 35.7416L57.4891 35.424L57.2448 35.3389C56.6185 35.1375 55.9715 34.9465 55.3236 34.7874C59.4278 33.2416 62.8251 30.2478 64.8757 26.3709C65.3532 29.8199 66.5732 33.312 69.3539 34.9888L69.3865 34.957ZM33.2169 16.3842C33.7463 11.1266 36.8614 6.47884 41.5231 3.99065C46.1849 1.50323 51.7808 1.50323 56.4426 3.99065C61.1043 6.47884 64.2194 11.1264 64.7488 16.3842V17.4458V17.9655V19.1011H64.6318C63.6553 19.1004 62.69 18.8946 61.7979 18.4963C61.1405 18.2076 60.515 17.8515 59.9301 17.4347C59.4704 17.1038 59.0277 16.7499 58.6035 16.3738C57.1688 15.0309 55.9199 13.5036 54.8886 11.8313C54.6909 11.4878 54.3185 11.2834 53.9232 11.3005C53.519 11.3197 53.1614 11.5662 53.0001 11.9371C53.0001 11.9371 51.6201 14.8242 46.2181 16.3842C41.9548 17.4265 37.5314 17.6464 33.185 17.0312C33.1961 16.8084 33.1961 16.5966 33.2168 16.3842L33.2169 16.3842ZM33.2169 26.5731C35.3105 30.3693 38.7012 33.2854 42.769 34.7875C42.122 34.9467 41.4846 35.1273 40.8479 35.3391C38.1806 36.1904 35.671 37.4742 33.419 39.1383C32.7083 38.8407 32.0235 38.4861 31.3705 38.0775C30.8952 37.7717 30.454 37.4156 30.0542 37.0159C29.4583 36.474 29.0333 35.7692 28.8342 34.989C31.5615 33.344 32.7504 29.9586 33.2168 26.5732L33.2169 26.5731ZM27.2841 33.3758H27.2848C26.8962 33.5453 26.6459 33.9288 26.6474 34.3523C26.6326 34.5921 26.6326 34.8335 26.6474 35.0741C25.8923 34.735 25.1157 34.4448 24.3235 34.2034C27.2848 32.8924 29.6499 30.5234 30.9567 27.5599C30.3726 30.1599 29.3006 32.4843 27.2848 33.3758L27.2841 33.3758ZM19.0059 11.64C21.8739 11.6429 24.6219 12.7852 26.6465 14.8159C28.6714 16.8459 29.8054 19.5975 29.7996 22.4654V22.9533C26.2654 22.8045 23.495 18.0607 23.4314 18.0184H23.4321C23.233 17.6668 22.8517 17.4588 22.449 17.4817C22.0463 17.5039 21.6902 17.7534 21.5318 18.1243C21.5318 18.1243 19.282 22.6246 8.26549 21.5097C8.49943 18.8202 9.7313 16.3157 11.7191 14.4886C13.7067 12.6623 16.3067 11.6458 19.0059 11.6399L19.0059 11.64ZM8.28698 23.6537C11.3577 24.035 14.473 23.8514 17.4778 23.1126C19.356 22.6632 21.0787 21.7171 22.466 20.3742C23.3728 21.6298 24.4766 22.7299 25.7344 23.6322C26.8263 24.4317 28.113 24.9233 29.4596 25.0551C28.6741 28.3946 26.3458 31.1612 23.1892 32.5062C20.0318 33.8506 16.4236 33.6122 13.4712 31.8643C10.5182 30.1165 8.5741 27.0678 8.23353 23.6536L8.28698 23.6537ZM2.30162 52.2558C2.28903 48.7216 3.40023 45.2762 5.47377 42.4141C7.54672 39.5528 10.4761 37.4245 13.8378 36.3363L14.1561 36.2304L15.6841 39.5839L13.3706 54.5373C13.2885 54.9393 13.4454 55.3524 13.7741 55.5989L15.8965 57.1802H2.30164L2.30162 52.2558Z" fill="#02B573"/>
</svg>
